# xmcd CD database file
#
# Track frame offsets:
#	150
#	11938
#	23555
#	36302
#	51052
#	64425
#	77808
#	90438
#	103322
#	115973
#	130561
#	142973
#	155773
#	169874
#	181590
#	193516
#	207604
#	221057
#	233829
#	246824
#	260085
#	272921
#
# Disc length: 3815 seconds
#
# Revision: 1
# Processed by: cddbd v1.5.2PL0 Copyright (c) Steve Scherf et al.
# Submitted via: CDex 1.51
#
DISCID=430ee516
DTITLE=Johnny Otis - The Godfather Of Rhythm and Blues and The R&B Caravan - Vol.2  {1950-1952}
DYEAR=2003
DGENRE=Jazz
TTITLE0=Freight Train Boogie
TTITLE1=Deceivin' Blues
TTITLE2=Good Time Blues
TTITLE3=Lost Dream Blues  (Lost In A Dream)
TTITLE4=Wedding Boogie
TTITLE5=Rockin' Blues
TTITLE6=Beer Bottle Boogie
TTITLE7=Uneasy Blues
TTITLE8=Feel Like Crying Again
TTITLE9=Doggin' Blues
TTITLE10=Mambo Boogie
TTITLE11=The Deacon Moves In
TTITLE12=It Ain't The Beauty
TTITLE13=Hand Me Down Blues  (Walk Me Blues Away)
TTITLE14=All Nite Long
TTITLE15=Because I Love My Baby So
TTITLE16=Ring-A-Ding-Doo
TTITLE17=Goomp Blues
TTITLE18=Bring My Lovin' Back To Me
TTITLE19=Hound Dog
TTITLE20=Nightmare
TTITLE21=Brown Skin Butterball
EXTD=YEAR: 2003
EXTT0=
EXTT1=
EXTT2=
EXTT3=
EXTT4=
EXTT5=
EXTT6=
EXTT7=
EXTT8=
EXTT9=
EXTT10=
EXTT11=
EXTT12=
EXTT13=
EXTT14=
EXTT15=
EXTT16=
EXTT17=
EXTT18=
EXTT19=
EXTT20=
EXTT21=
PLAYORDER=
